<?xml version="1.0" encoding="UTF-8"?><svg id="Layer_1" xmlns="http://www.w3.org/2000/svg" viewBox="0 0 512 512"><path d="M195.25,256h0c0,7.12,1.24,13.95,3.49,20.29l77.56-77.56c-6.35-2.25-13.18-3.49-20.29-3.49-33.55,0-60.75,27.2-60.75,60.75Z"/><path d="M113,362.03l50.41-50.41c-9.78-16.25-15.41-35.27-15.41-55.62h0c0-59.65,48.35-108,108-108h0c20.34,0,39.37,5.63,55.62,15.41l36.39-36.39c-28.89-9.74-59.83-15.02-92.01-15.02h0c-106.6,0-199.66,57.92-249.46,144,25.48,44.05,62.3,80.72,106.46,106.03Z"/><path d="M386.01,142.97l70.48-70.48c4.69-4.69,4.69-12.28,0-16.97-4.69-4.69-12.29-4.69-16.97,0L55.51,439.51c-4.69,4.69-4.69,12.28,0,16.97,2.34,2.34,5.41,3.51,8.49,3.51s6.14-1.17,8.49-3.51l76.88-76.88c32.98,13.16,68.96,20.39,106.64,20.39h0c106.6,0,199.66-57.92,249.46-144-27.94-48.3-69.52-87.72-119.46-113.03ZM364,256c0,59.65-48.35,108-108,108h0c-25.5,0-48.93-8.85-67.4-23.63l33.79-33.79c9.63,6.41,21.17,10.17,33.61,10.17,33.55,0,60.75-27.2,60.75-60.75h0c0-12.44-3.76-23.98-10.17-33.61l33.79-33.79c14.78,18.48,23.63,41.9,23.63,67.4h0Z"/></svg>